<svg xmlns="http://www.w3.org/2000/svg" version="1.1" xmlns:xlink="http://www.w3.org/1999/xlink" xmlns:svgjs="http://svgjs.dev/svgjs" width="1000" height="623" viewBox="0 0 1000 623"><g transform="matrix(1,0,0,1,-0.6060606060606233,0.2522267206477409)"><svg viewBox="0 0 396 247" data-background-color="#1ebbd7" preserveAspectRatio="xMidYMid meet" height="623" width="1000" xmlns="http://www.w3.org/2000/svg" xmlns:xlink="http://www.w3.org/1999/xlink"><g id="tight-bounds" transform="matrix(1,0,0,1,0.2400000000000091,-0.09999999999999432)"><svg viewBox="0 0 395.52 247.2" height="247.2" width="395.52"><g><svg></svg></g><g><svg viewBox="0 0 395.52 247.2" height="247.2" width="395.52"><g><path d="M55.039 247.2l45.399-78.633h2.362l-44.153 76.475h278.226l-44.153-76.475 2.362 0 45.399 78.633zM197.76 0l45.398 78.633h-2.362l-43.036-74.542-43.036 74.542-2.362 0z" fill="#010c80" fill-rule="nonzero" stroke="none" stroke-width="1" stroke-linecap="butt" stroke-linejoin="miter" stroke-miterlimit="10" stroke-dasharray="" stroke-dashoffset="0" font-family="none" font-weight="none" font-size="none" text-anchor="none" style="mix-blend-mode: normal" data-fill-palette-color="tertiary"></path></g><g transform="matrix(1,0,0,1,0,91.48036709940305)"><svg viewBox="0 0 395.52 64.23926580119388" height="64.23926580119388" width="395.52"><g><svg viewBox="0 0 395.52 64.23926580119388" height="64.23926580119388" width="395.52"><g><svg viewBox="0 0 395.52 64.23926580119388" height="64.23926580119388" width="395.52"><g><svg viewBox="0 0 395.52 64.23926580119388" height="64.23926580119388" width="395.52"><g id="textblocktransform"><svg viewBox="0 0 395.52 64.23926580119388" height="64.23926580119388" width="395.52" id="textblock"><g><svg viewBox="0 0 395.52 34.64759039068187" height="34.64759039068187" width="395.52"><g transform="matrix(1,0,0,1,0,0)"><svg width="395.52" viewBox="2.75 -35.5 412.07 36.1" height="34.64759039068187" data-palette-color="#010c80"><path d="M2.75 0L2.75-2.3 6.5-2.3 6.5-32.6 2.75-32.6 2.75-34.9 19.45-34.9Q23.85-34.9 26.33-32.65 28.8-30.4 28.8-26.65L28.8-26.65Q28.8-24.8 28.25-23.35 27.7-21.9 26.78-20.85 25.85-19.8 24.68-19.15 23.5-18.5 22.25-18.3L22.25-18.3 22.25-18.15Q23.55-18.05 24.95-17.5 26.35-16.95 27.5-15.9 28.65-14.85 29.4-13.3 30.15-11.75 30.15-9.7L30.15-9.7Q30.15-7.5 29.48-5.7 28.8-3.9 27.58-2.63 26.35-1.35 24.65-0.68 22.95 0 20.95 0L20.95 0 2.75 0ZM10.8-16.8L10.8-2.45 19.4-2.45Q22.3-2.45 23.93-4.15 25.55-5.85 25.55-8.55L25.55-8.55 25.55-10.75Q25.55-13.4 23.93-15.1 22.3-16.8 19.4-16.8L19.4-16.8 10.8-16.8ZM10.8-32.45L10.8-19.25 18.6-19.25Q21.3-19.25 22.75-20.8 24.2-22.35 24.2-24.75L24.2-24.75 24.2-26.95Q24.2-29.35 22.75-30.9 21.3-32.45 18.6-32.45L18.6-32.45 10.8-32.45ZM36.25 0L36.25-2.3 40-2.3 40-32.6 36.25-32.6 36.25-34.9 48.05-34.9 48.05-32.6 44.3-32.6 44.3-2.45 57.1-2.45 57.1-8.85 60.7-8.85 60.7 0 36.25 0ZM80.05 0.6L80.05 0.6Q76.65 0.6 74.22-0.15 71.8-0.9 70.25-2.6 68.7-4.3 68-6.95 67.3-9.6 67.3-13.45L67.3-13.45 67.3-32.6 63.55-32.6 63.55-34.9 75.35-34.9 75.35-32.6 71.6-32.6 71.6-12.65Q71.6-10 72.05-8.05 72.5-6.1 73.52-4.83 74.55-3.55 76.2-2.9 77.85-2.25 80.3-2.25L80.3-2.25Q85.2-2.25 87.25-4.83 89.3-7.4 89.3-12.65L89.3-12.65 89.3-32.6 85.55-32.6 85.55-34.9 95.8-34.9 95.8-32.6 92.05-32.6 92.05-14.1Q92.05-10.3 91.45-7.53 90.85-4.75 89.42-2.95 88-1.15 85.7-0.28 83.4 0.6 80.05 0.6ZM100.79 0L100.79-2.3 104.54-2.3 104.54-32.6 100.79-32.6 100.79-34.9 126.59-34.9 126.59-26.5 122.99-26.5 122.99-32.45 108.84-32.45 108.84-19.2 118.74-19.2 118.74-23.2 121.74-23.2 121.74-12.75 118.74-12.75 118.74-16.75 108.84-16.75 108.84-2.45 123.49-2.45 123.49-8.85 127.09-8.85 127.09 0 100.79 0ZM144.44 0L144.44-2.3 148.19-2.3 148.19-32.6 144.44-32.6 144.44-34.9 153.24-34.9 163.44-13.3 163.59-13.3 174.29-34.9 182.54-34.9 182.54-32.6 178.79-32.6 178.79-2.3 182.54-2.3 182.54 0 170.74 0 170.74-2.3 174.49-2.3 174.49-29.85 174.29-29.85 172.09-25 162.49-5.85 153.94-23.75 151.14-29.85 150.94-29.85 150.94-2.3 154.69-2.3 154.69 0 144.44 0ZM203.19-2.05L203.19-2.05Q205.74-2.05 207.71-2.98 209.69-3.9 211.04-5.58 212.39-7.25 213.09-9.55 213.79-11.85 213.79-14.6L213.79-14.6 213.79-20.3Q213.79-23.05 213.09-25.35 212.39-27.65 211.04-29.33 209.69-31 207.71-31.93 205.74-32.85 203.19-32.85L203.19-32.85Q200.64-32.85 198.66-31.93 196.69-31 195.34-29.33 193.99-27.65 193.29-25.35 192.59-23.05 192.59-20.3L192.59-20.3 192.59-14.6Q192.59-11.85 193.29-9.55 193.99-7.25 195.34-5.58 196.69-3.9 198.66-2.98 200.64-2.05 203.19-2.05ZM203.19 0.6L203.19 0.6Q199.74 0.6 196.89-0.65 194.04-1.9 192.01-4.25 189.99-6.6 188.89-9.93 187.79-13.25 187.79-17.45L187.79-17.45Q187.79-21.65 188.89-24.98 189.99-28.3 192.01-30.65 194.04-33 196.89-34.25 199.74-35.5 203.19-35.5L203.19-35.5Q206.64-35.5 209.49-34.25 212.34-33 214.36-30.65 216.39-28.3 217.49-24.98 218.59-21.65 218.59-17.45L218.59-17.45Q218.59-13.25 217.49-9.93 216.39-6.6 214.36-4.25 212.34-1.9 209.49-0.65 206.64 0.6 203.19 0.6ZM239.83 0.6L239.83 0.6Q236.43 0.6 234.01-0.15 231.58-0.9 230.03-2.6 228.48-4.3 227.78-6.95 227.08-9.6 227.08-13.45L227.08-13.45 227.08-32.6 223.33-32.6 223.33-34.9 235.13-34.9 235.13-32.6 231.38-32.6 231.38-12.65Q231.38-10 231.83-8.05 232.28-6.1 233.31-4.83 234.33-3.55 235.98-2.9 237.63-2.25 240.08-2.25L240.08-2.25Q244.98-2.25 247.03-4.83 249.08-7.4 249.08-12.65L249.08-12.65 249.08-32.6 245.33-32.6 245.33-34.9 255.58-34.9 255.58-32.6 251.83-32.6 251.83-14.1Q251.83-10.3 251.23-7.53 250.63-4.75 249.21-2.95 247.78-1.15 245.48-0.28 243.18 0.6 239.83 0.6ZM260.58 0L260.58-2.3 264.33-2.3 264.33-32.6 260.58-32.6 260.58-34.9 269.03-34.9 287.78-6.9 287.98-6.9 287.98-32.6 284.23-32.6 284.23-34.9 294.48-34.9 294.48-32.6 290.73-32.6 290.73 0 287.38 0 267.28-30.05 267.08-30.05 267.08-2.3 270.83-2.3 270.83 0 260.58 0ZM306.13 0L306.13-2.3 310.88-2.3 310.88-32.45 302.08-32.45 302.08-26.5 298.48-26.5 298.48-34.9 327.58-34.9 327.58-26.5 323.98-26.5 323.98-32.45 315.18-32.45 315.18-2.3 319.93-2.3 319.93 0 306.13 0ZM327.38 0L327.38-2.3 330.03-2.3 341.38-34.9 346.13-34.9 357.43-2.3 360.08-2.3 360.08 0 348.28 0 348.28-2.3 352.78-2.3 349.68-11.35 336.08-11.35 332.98-2.3 337.48-2.3 337.48 0 327.38 0ZM342.78-31.25L336.78-13.75 348.93-13.75 343.08-31.25 342.78-31.25ZM363.62 0L363.62-2.3 367.37-2.3 367.37-32.6 363.62-32.6 363.62-34.9 375.42-34.9 375.42-32.6 371.67-32.6 371.67-2.3 375.42-2.3 375.42 0 363.62 0ZM380.92 0L380.92-2.3 384.67-2.3 384.67-32.6 380.92-32.6 380.92-34.9 389.37-34.9 408.12-6.9 408.32-6.9 408.32-32.6 404.57-32.6 404.57-34.9 414.82-34.9 414.82-32.6 411.07-32.6 411.07 0 407.72 0 387.62-30.05 387.42-30.05 387.42-2.3 391.17-2.3 391.17 0 380.92 0Z" opacity="1" transform="matrix(1,0,0,1,0,0)" fill="#010c80" class="wordmark-text-0" data-fill-palette-color="primary" id="text-0"></path></svg></g></svg></g><g transform="matrix(1,0,0,1,0,42.827054939752486)"><svg viewBox="0 0 395.52 21.412210861441395" height="21.412210861441395" width="395.52"><g transform="matrix(1,0,0,1,0,0)"><svg width="395.52" viewBox="4.15 -36 838.62 45.4" height="21.412210861441395" data-palette-color="#77d4fc"><path d="M8.85-36L8.85-22.3Q10-23.95 11.98-25 13.95-26.05 16.25-26.05L16.25-26.05Q21.15-26.05 23.85-22.63 26.55-19.2 26.55-13.35L26.55-13.35 26.55-12.8Q26.55-6.6 23.78-3.05 21 0.5 16.2 0.5L16.2 0.5Q10.5 0.5 7.6-4.05L7.6-4.05 5.95 0 4.15 0 4.15-36 8.85-36ZM15.3-22.3Q11.95-22.3 10.38-19.98 8.8-17.65 8.8-12.75L8.8-12.75Q8.8-7.85 10.4-5.55 12-3.25 15.3-3.25L15.3-3.25Q21.85-3.25 21.85-12.75L21.85-12.75Q21.85-17.65 20.2-19.98 18.55-22.3 15.3-22.3L15.3-22.3ZM60.78-36L65.68-36 65.68-31.65 60.78-31.65 60.78-36ZM60.88-25.55L65.58-25.55 65.58 0 60.88 0 60.88-25.55ZM124.86-30.15Q124.86-27.6 123.51-25.88 122.16-24.15 119.76-23.65L119.76-23.65 119.66-23.5Q122.16-21.3 122.16-18L122.16-18Q122.16-14.4 119.46-12.2 116.76-10 112.11-10L112.11-10 108.71-10Q107.21-10 106.21-9.22 105.21-8.45 105.21-7.25L105.21-7.25Q105.21-6.05 106.16-5.35 107.11-4.65 108.71-4.65L108.71-4.65 118.36-4.65Q121.31-4.65 123.09-2.8 124.86-0.95 124.86 1.9L124.86 1.9Q124.86 5.3 122.29 7.35 119.71 9.4 115.36 9.4L115.36 9.4 105.31 9.4Q103.61 9.4 102.19 8.5 100.76 7.6 99.94 6.23 99.11 4.85 99.11 3.4L99.11 3.4Q99.11 1.3 100.14-0.25 101.16-1.8 102.86-2.55L102.86-2.55Q100.56-3.95 100.56-6.7L100.56-6.7Q100.56-8.5 101.61-9.8 102.66-11.1 104.56-11.75L104.56-11.75Q101.21-13.6 101.21-18L101.21-18Q101.21-21.7 103.94-23.88 106.66-26.05 111.51-26.05L111.51-26.05 111.71-26.05Q114.51-26.05 116.81-25.2L116.81-25.2Q120.36-26.95 120.86-30.15L120.86-30.15 124.86-30.15ZM111.66-22.3Q109.01-22.3 107.44-21.28 105.86-20.25 105.86-18L105.86-18Q105.86-15.75 107.44-14.75 109.01-13.75 111.66-13.75L111.66-13.75Q114.31-13.75 115.91-14.75 117.51-15.75 117.51-18L117.51-18Q117.51-20.25 115.91-21.28 114.31-22.3 111.66-22.3L111.66-22.3ZM116.96-0.15L106.66-0.15Q105.46-0.15 104.61 0.7 103.76 1.55 103.76 2.75L103.76 2.75Q103.76 3.95 104.61 4.8 105.46 5.65 106.66 5.65L106.66 5.65 116.31 5.65Q117.91 5.65 119.06 4.73 120.21 3.8 120.21 2.6L120.21 2.6Q120.21 1.35 119.36 0.6 118.51-0.15 116.96-0.15L116.96-0.15ZM180.85-30.15Q180.85-27.6 179.5-25.88 178.15-24.15 175.75-23.65L175.75-23.65 175.65-23.5Q178.15-21.3 178.15-18L178.15-18Q178.15-14.4 175.45-12.2 172.75-10 168.1-10L168.1-10 164.7-10Q163.2-10 162.2-9.22 161.2-8.45 161.2-7.25L161.2-7.25Q161.2-6.05 162.15-5.35 163.1-4.65 164.7-4.65L164.7-4.65 174.35-4.65Q177.3-4.65 179.07-2.8 180.85-0.95 180.85 1.9L180.85 1.9Q180.85 5.3 178.27 7.35 175.7 9.4 171.35 9.4L171.35 9.4 161.3 9.4Q159.6 9.4 158.17 8.5 156.75 7.6 155.92 6.23 155.1 4.85 155.1 3.4L155.1 3.4Q155.1 1.3 156.12-0.25 157.15-1.8 158.85-2.55L158.85-2.55Q156.55-3.95 156.55-6.7L156.55-6.7Q156.55-8.5 157.6-9.8 158.65-11.1 160.55-11.75L160.55-11.75Q157.2-13.6 157.2-18L157.2-18Q157.2-21.7 159.92-23.88 162.65-26.05 167.5-26.05L167.5-26.05 167.7-26.05Q170.5-26.05 172.8-25.2L172.8-25.2Q176.35-26.95 176.85-30.15L176.85-30.15 180.85-30.15ZM167.65-22.3Q165-22.3 163.42-21.28 161.85-20.25 161.85-18L161.85-18Q161.85-15.75 163.42-14.75 165-13.75 167.65-13.75L167.65-13.75Q170.3-13.75 171.9-14.75 173.5-15.75 173.5-18L173.5-18Q173.5-20.25 171.9-21.28 170.3-22.3 167.65-22.3L167.65-22.3ZM172.95-0.15L162.65-0.15Q161.45-0.15 160.6 0.7 159.75 1.55 159.75 2.75L159.75 2.75Q159.75 3.95 160.6 4.8 161.45 5.65 162.65 5.65L162.65 5.65 172.3 5.65Q173.9 5.65 175.05 4.73 176.2 3.8 176.2 2.6L176.2 2.6Q176.2 1.35 175.35 0.6 174.5-0.15 172.95-0.15L172.95-0.15ZM223.68-26.05Q226.83-26.05 229.25-24.73 231.68-23.4 233.03-20.95 234.38-18.5 234.38-15.25L234.38-15.25 234.38-11.7 216.53-11.7Q216.63-7.65 218.43-5.45 220.23-3.25 223.78-3.25L223.78-3.25Q226.93-3.25 228.43-5.1 229.93-6.95 229.93-9.5L229.93-9.5 234.38-9.5Q234.38-6.5 233-4.25 231.63-2 229.2-0.75 226.78 0.5 223.68 0.5L223.68 0.5 223.48 0.5Q218.08 0.5 214.95-2.98 211.83-6.45 211.83-12.25L211.83-12.25 211.83-13.25Q211.83-17.05 213.23-19.95 214.63-22.85 217.23-24.45 219.83-26.05 223.33-26.05L223.33-26.05 223.68-26.05ZM223.43-22.3Q220.58-22.3 218.8-20.55 217.03-18.8 216.63-15.35L216.63-15.35 229.73-15.35 229.73-15.95Q229.73-18.8 228-20.55 226.28-22.3 223.43-22.3L223.43-22.3ZM280.31-26.05Q283.86-26.05 285.86-23.78 287.86-21.5 287.86-18.05L287.86-18.05 287.71-16.15 283.56-16.15 283.56-17.25Q283.56-18.75 282.81-19.9 282.06-21.05 280.91-21.68 279.76-22.3 278.61-22.3L278.61-22.3Q276.21-22.3 274.86-20.4 273.51-18.5 273.51-15.25L273.51-15.25 273.51 0 268.81 0 268.81-25.55 272.16-25.55 272.86-21.75Q273.16-22.75 274.21-23.75 275.26-24.75 276.84-25.4 278.41-26.05 280.31-26.05L280.31-26.05ZM359.98-15.95L372.63-15.95 372.63-11.05 359.98-11.05 359.98-15.95ZM457.34-26.05Q460.19-26.05 462.41-25.15 464.64-24.25 465.86-22.65 467.09-21.05 467.09-19.1L467.09-19.1 467.04-18.2 462.39-18.2 462.39-18.65Q462.39-22.3 456.74-22.3L456.74-22.3Q451.14-22.3 451.14-18.95L451.14-18.95Q451.14-17.4 452.74-16.68 454.34-15.95 457.64-15.3L457.64-15.3Q460.79-14.65 462.81-13.95 464.84-13.25 466.26-11.75 467.69-10.25 467.69-7.7L467.69-7.7Q467.69-3.6 464.89-1.55 462.09 0.5 456.84 0.5L456.84 0.5 456.09 0.5Q452.94 0.5 450.59-0.48 448.24-1.45 446.96-3.13 445.69-4.8 445.74-6.9L445.74-6.9 445.74-8 450.39-8 450.39-7.5Q450.39-3.25 457.54-3.25L457.54-3.25Q459.64-3.25 461.31-4.2 462.99-5.15 462.99-6.8L462.99-6.8Q462.99-8.2 462.06-9 461.14-9.8 459.79-10.2 458.44-10.6 456.04-11L456.04-11Q452.94-11.6 451.04-12.23 449.14-12.85 447.79-14.35 446.44-15.85 446.44-18.45L446.44-18.45Q446.44-22 449.24-24.03 452.04-26.05 456.89-26.05L456.89-26.05 457.34-26.05ZM507.37-33.7L507.37-25.55 513.32-25.55 513.32-21.8 507.37-21.8 507.37-6.55Q507.37-4.75 508.07-3.95 508.77-3.15 510.22-3.15L510.22-3.15Q511.52-3.15 513.32-3.9L513.32-3.9 513.32-0.4Q511.52 0.5 508.67 0.5L508.67 0.5Q505.72 0.5 504.2-1.25 502.67-3 502.67-6.8L502.67-6.8 502.67-21.8 499.87-21.8 499.87-25.55 502.82-25.55 504.42-33.7 507.37-33.7ZM558.25-26.05Q561.8-26.05 563.8-23.78 565.8-21.5 565.8-18.05L565.8-18.05 565.65-16.15 561.5-16.15 561.5-17.25Q561.5-18.75 560.75-19.9 560-21.05 558.85-21.68 557.7-22.3 556.55-22.3L556.55-22.3Q554.15-22.3 552.8-20.4 551.45-18.5 551.45-15.25L551.45-15.25 551.45 0 546.75 0 546.75-25.55 550.1-25.55 550.8-21.75Q551.1-22.75 552.15-23.75 553.2-24.75 554.78-25.4 556.35-26.05 558.25-26.05L558.25-26.05ZM609.04-26.05Q614.39-26.05 617.59-22.75 620.79-19.45 620.79-13.7L620.79-13.7 620.79-11.85Q620.79-6.1 617.64-2.8 614.49 0.5 609.04 0.5L609.04 0.5Q603.59 0.5 600.44-2.8 597.29-6.1 597.29-11.85L597.29-11.85 597.29-13.7Q597.29-19.45 600.49-22.75 603.69-26.05 609.04-26.05L609.04-26.05ZM609.04-22.3Q605.69-22.3 603.84-20 601.99-17.7 601.99-13.25L601.99-13.25 601.99-12.3Q601.99-7.95 603.81-5.6 605.64-3.25 609.04-3.25L609.04-3.25Q612.34-3.25 614.21-5.58 616.09-7.9 616.09-12.3L616.09-12.3 616.09-13.25Q616.09-17.6 614.26-19.95 612.44-22.3 609.04-22.3L609.04-22.3ZM667.72-26.05Q671.92-26.05 674.32-23.8 676.72-21.55 676.72-17.2L676.72-17.2 676.72 0 672.02 0 672.02-16.35Q672.02-22.3 666.62-22.3L666.62-22.3Q664.82-22.3 663.27-21.35 661.72-20.4 660.77-18.78 659.82-17.15 659.82-15.2L659.82-15.2 659.82 0 655.12 0 655.12-25.55 658.52-25.55 659.17-21.8Q662.37-26.05 667.72-26.05L667.72-26.05ZM735.75-30.15Q735.75-27.6 734.4-25.88 733.05-24.15 730.65-23.65L730.65-23.65 730.55-23.5Q733.05-21.3 733.05-18L733.05-18Q733.05-14.4 730.35-12.2 727.65-10 723-10L723-10 719.6-10Q718.1-10 717.1-9.22 716.1-8.45 716.1-7.25L716.1-7.25Q716.1-6.05 717.05-5.35 718-4.65 719.6-4.65L719.6-4.65 729.25-4.65Q732.2-4.65 733.98-2.8 735.75-0.95 735.75 1.9L735.75 1.9Q735.75 5.3 733.18 7.35 730.6 9.4 726.25 9.4L726.25 9.4 716.2 9.4Q714.5 9.4 713.08 8.5 711.65 7.6 710.83 6.23 710 4.85 710 3.4L710 3.4Q710 1.3 711.03-0.25 712.05-1.8 713.75-2.55L713.75-2.55Q711.45-3.95 711.45-6.7L711.45-6.7Q711.45-8.5 712.5-9.8 713.55-11.1 715.45-11.75L715.45-11.75Q712.1-13.6 712.1-18L712.1-18Q712.1-21.7 714.83-23.88 717.55-26.05 722.4-26.05L722.4-26.05 722.6-26.05Q725.4-26.05 727.7-25.2L727.7-25.2Q731.25-26.95 731.75-30.15L731.75-30.15 735.75-30.15ZM722.55-22.3Q719.9-22.3 718.33-21.28 716.75-20.25 716.75-18L716.75-18Q716.75-15.75 718.33-14.75 719.9-13.75 722.55-13.75L722.55-13.75Q725.2-13.75 726.8-14.75 728.4-15.75 728.4-18L728.4-18Q728.4-20.25 726.8-21.28 725.2-22.3 722.55-22.3L722.55-22.3ZM727.85-0.15L717.55-0.15Q716.35-0.15 715.5 0.7 714.65 1.55 714.65 2.75L714.65 2.75Q714.65 3.95 715.5 4.8 716.35 5.65 717.55 5.65L717.55 5.65 727.2 5.65Q728.8 5.65 729.95 4.73 731.1 3.8 731.1 2.6L731.1 2.6Q731.1 1.35 730.25 0.6 729.4-0.15 727.85-0.15L727.85-0.15ZM778.58-26.05Q781.73-26.05 784.16-24.73 786.58-23.4 787.93-20.95 789.28-18.5 789.28-15.25L789.28-15.25 789.28-11.7 771.43-11.7Q771.53-7.65 773.33-5.45 775.13-3.25 778.68-3.25L778.68-3.25Q781.83-3.25 783.33-5.1 784.83-6.95 784.83-9.5L784.83-9.5 789.28-9.5Q789.28-6.5 787.91-4.25 786.53-2 784.11-0.75 781.68 0.5 778.58 0.5L778.58 0.5 778.38 0.5Q772.98 0.5 769.86-2.98 766.73-6.45 766.73-12.25L766.73-12.25 766.73-13.25Q766.73-17.05 768.13-19.95 769.53-22.85 772.13-24.45 774.73-26.05 778.23-26.05L778.23-26.05 778.58-26.05ZM778.33-22.3Q775.48-22.3 773.71-20.55 771.93-18.8 771.53-15.35L771.53-15.35 784.63-15.35 784.63-15.95Q784.63-18.8 782.91-20.55 781.18-22.3 778.33-22.3L778.33-22.3ZM835.22-26.05Q838.77-26.05 840.77-23.78 842.77-21.5 842.77-18.05L842.77-18.05 842.62-16.15 838.47-16.15 838.47-17.25Q838.47-18.75 837.72-19.9 836.97-21.05 835.82-21.68 834.67-22.3 833.52-22.3L833.52-22.3Q831.12-22.3 829.77-20.4 828.42-18.5 828.42-15.25L828.42-15.25 828.42 0 823.72 0 823.72-25.55 827.07-25.55 827.77-21.75Q828.07-22.75 829.12-23.75 830.17-24.75 831.74-25.4 833.32-26.05 835.22-26.05L835.22-26.05Z" opacity="1" transform="matrix(1,0,0,1,0,0)" fill="#77d4fc" class="slogan-text-1" data-fill-palette-color="secondary" id="text-1"></path></svg></g></svg></g></svg></g></svg></g></svg></g></svg></g></svg></g></svg></g><defs></defs></svg><rect width="395.52" height="247.2" fill="none" stroke="none" visibility="hidden"></rect></g></svg></g></svg>