<?xml version="1.0" encoding="UTF-8" standalone="no"?>
<!-- Created with Inkscape (http://www.inkscape.org/) -->

<svg
   version="1.1"
   id="svg2783"
   width="880"
   height="880"
   viewBox="0 0 880 880"
   sodipodi:docname="mountain-clip-art-publicdomainvectors.org.svg"
   inkscape:version="1.2 (dc2aedaf03, 2022-05-15)"
   xmlns:inkscape="http://www.inkscape.org/namespaces/inkscape"
   xmlns:sodipodi="http://sodipodi.sourceforge.net/DTD/sodipodi-0.dtd"
   xmlns="http://www.w3.org/2000/svg"
   xmlns:svg="http://www.w3.org/2000/svg">
  <defs
     id="defs2787" />
  <sodipodi:namedview
     id="namedview2785"
     pagecolor="#ffffff"
     bordercolor="#000000"
     borderopacity="0.25"
     inkscape:showpageshadow="2"
     inkscape:pageopacity="0.0"
     inkscape:pagecheckerboard="0"
     inkscape:deskcolor="#d1d1d1"
     showgrid="false"
     inkscape:zoom="0.95113636"
     inkscape:cx="440.52569"
     inkscape:cy="440.52569"
     inkscape:window-width="1920"
     inkscape:window-height="1017"
     inkscape:window-x="-8"
     inkscape:window-y="-8"
     inkscape:window-maximized="1"
     inkscape:current-layer="g2791">
    <inkscape:page
       x="0"
       y="0"
       id="page2789"
       width="880"
       height="880" />
  </sodipodi:namedview>
  <g
     id="g2791"
     inkscape:groupmode="layer"
     inkscape:label="Page 1"
     transform="matrix(1.3333333,0,0,-1.3333333,0,880)">
    <g
       id="g2793"
       transform="translate(0,659.9934)">
      <path
         d="m 0,0 v -601.59 l 158.133,42.37 22.735,-22.736 237.931,63.755 30.999,-30.999 134.239,35.971 23.669,-23.668 52.294,14.011 V 0 Z"
         style="fill:#66cff2;fill-opacity:1;fill-rule:nonzero;stroke:none"
         id="path2795" />
    </g>
    <g
       id="g2797"
       transform="translate(99.3257,367.375)">
      <path
         d="m 0,0 100.891,100.891 25.51,-25.51 77.388,77.388 L 330.19,27.516 32.675,-157.07 Z"
         style="fill:#37b2db;fill-opacity:1;fill-rule:evenodd;stroke:none"
         id="path2799" />
    </g>
    <g
       id="g2801"
       transform="translate(0,335.8458)">
      <path
         d="M 0,0 V -202.928 L 348.686,-112.93 169.262,66.497 144.039,41.274 92.656,92.657 Z"
         style="fill:#2da3ca;fill-opacity:1;fill-rule:nonzero;stroke:none"
         id="path2803" />
    </g>
    <g
       id="g2805"
       transform="translate(316.8648,448.5483)">
      <path
         d="m 0,0 -16.396,9.466 -143.238,-143.238 -30.182,17.425 -127.049,-127.046 v -205.155 h 660 v 347.262 L 224.287,17.558 208.948,-53.078 79.655,79.654 Z"
         style="fill:#acdae8;fill-opacity:1;fill-rule:nonzero;stroke:none"
         id="path2807" />
    </g>
    <g
       id="g2809"
       transform="translate(243.7839,359.9244)">
      <path
         d="m 0,0 43.568,18.917 14.331,40.701 z m 0.575,-154.775 -48.154,-33.821 58.472,26.37 34.394,-40.127 -8.599,51.591 44.712,40.7 9.746,73.376 z m -102.612,87.134 -24.649,-24.65 28.564,-23.139 67.885,39.195 19.011,32.927 z m -141.747,-127.99 v -112.634 l 62.871,10.243 62.252,-20.127 42.42,127.261 48.724,60.763 -3.437,29.235 -141.315,-156.134 2.589,51.805 47.007,59.616 -26.369,26.369 4.012,22.357 z"
         style="fill:#8fc8d9;fill-opacity:1;fill-rule:nonzero;stroke:none"
         id="path2811" />
    </g>
    <g
       id="g2813"
       transform="translate(541.1523,466.1064)">
      <path
         d="m 0,0 -41.551,-43.71 26.212,-26.926 z"
         style="fill:#acdae8;fill-opacity:1;fill-rule:evenodd;stroke:none"
         id="path2815" />
    </g>
    <g
       id="g2817"
       transform="translate(376.7724,476.8713)">
      <path
         d="m 0,0 11.465,-10.319 -8.029,-32.1 -20.633,-16.052 -36.691,-4.586 -30.953,-56.177 43.566,14.903 27.514,-45.858 45.861,-13.758 48.154,-97.452 -29.81,13.759 -67.641,-20.637 -32.104,-53.885 32.104,-84.841 250.888,2.008 49.536,63.22 v 212.166 L 164.38,-10.765 149.041,-81.401 19.748,51.331 Z m -246.491,-182.872 26.949,20.777 -30.182,17.425 z"
         style="fill:#0f84ab;fill-opacity:1;fill-rule:nonzero;stroke:none"
         id="path2819" />
    </g>
    <g
       id="g2821"
       transform="translate(390.5325,379.9908)">
      <path
         d="m 0,0 65.349,-88.852 11.465,-44.713 16.05,40.127 L 6.305,20.638 Z m 122.673,-95.73 -10.318,-43.567 32.1,-38.979 18.344,-102.039 63.938,-19.115 42.73,54.535 v 59.519 l -50.002,50.004 -27.11,-7.263 -47.9,15.949 14.935,25.867 -82.812,82.813 z m 40.126,53.884 106.668,-106.666 v 56.178 l -48.196,48.195 -36.688,12.611 z m -92.103,-170.416 7.964,-29.725 -18.061,-67.402 17.026,0.136 57.66,23.778 -57.515,99.618 z m -73.495,-65.186 36.62,13.185 -36.62,63.425 z"
         style="fill:#056e91;fill-opacity:1;fill-rule:nonzero;stroke:none"
         id="path2823" />
    </g>
    <g
       id="g2825"
       transform="translate(507.4938,126.252)">
      <path
         d="M 0,0 -88.695,15.54 -233.6,-23.287 -349.361,-25.479 -507.494,-67.848 v -58.404 h 660 V 11.624 l -75.963,8.888 z"
         style="fill:#edf9fc;fill-opacity:1;fill-rule:nonzero;stroke:none"
         id="path2827" />
    </g>
    <g
       id="g2829"
       transform="translate(400.8555,45.2097)">
      <path
         d="M 0,0 -106.625,-1.146 -221.779,-45.21 H 95.298 l -71.223,21.135 65.35,18.345 22.925,31.616 z"
         style="fill:#acdae8;fill-opacity:1;fill-rule:nonzero;stroke:none"
         id="path2831" />
    </g>
  </g>
</svg>
